<?xml version="1.0" standalone="no"?><!DOCTYPE svg PUBLIC "-//W3C//DTD SVG 1.1//EN" "http://www.w3.org/Graphics/SVG/1.1/DTD/svg11.dtd"><svg height="32" node-id="1" sillyvg="true" template-height="32" template-width="32" version="1.1" viewBox="0 0 32 32" width="32" xmlns="http://www.w3.org/2000/svg" xmlns:xlink="http://www.w3.org/1999/xlink"><defs node-id="71"><linearGradient gradientUnits="objectBoundingBox" id="paint5_linear_31_1636" node-id="46" spreadMethod="pad" x1="20.7692" x2="20" y1="13" y2="17"><stop offset="0" stop-color="#553b3e"></stop><stop offset="1" stop-color="#3d2432"></stop></linearGradient><linearGradient gradientUnits="objectBoundingBox" id="paint6_linear_31_1636" node-id="49" spreadMethod="pad" x1="20.7692" x2="20" y1="13" y2="17"><stop offset="0" stop-color="#553b3e"></stop><stop offset="1" stop-color="#3d2432"></stop></linearGradient><linearGradient gradientUnits="objectBoundingBox" id="paint7_linear_31_1636" node-id="52" spreadMethod="pad" x1="9.5" x2="9.5" y1="5" y2="6.5"><stop offset="0.0299084" stop-color="#524049"></stop><stop offset="1" stop-color="#4a2c42"></stop></linearGradient><radialGradient cx="0" cy="0" fx="0" fy="0" gradientUnits="objectBoundingBox" id="paint0_radial_31_1636" node-id="28" r="1" rev="9" spreadMethod="pad"><stop offset="0" stop-color="#fff478"></stop><stop offset="0.474827" stop-color="#ffb02e"></stop><stop offset="1" stop-color="#f70a8d"></stop></radialGradient><radialGradient cx="0" cy="0" fx="0" fy="0" gradientUnits="objectBoundingBox" id="paint1_radial_31_1636" node-id="32" r="1" rev="8" spreadMethod="pad"><stop offset="0.670495" stop-color="#bfb2dd" stop-opacity="0"></stop><stop offset="0.747649" stop-color="#a4aeeb"></stop><stop offset="0.811631" stop-color="#379eff"></stop><stop offset="0.964059" stop-color="#1345b7"></stop></radialGradient><radialGradient cx="0" cy="0" fx="0" fy="0" gradientUnits="objectBoundingBox" id="paint2_radial_31_1636" node-id="37" r="1" rev="7" spreadMethod="pad"><stop offset="0.314853" stop-color="#000000" stop-opacity="0"></stop><stop offset="1" stop-color="#000000"></stop></radialGradient><radialGradient cx="0" cy="0" fx="0" fy="0" gradientUnits="objectBoundingBox" id="paint3_radial_31_1636" node-id="40" r="1" rev="6" spreadMethod="pad"><stop offset="0.330628" stop-color="#392108"></stop><stop offset="1" stop-color="#c87928" stop-opacity="0"></stop></radialGradient><radialGradient cx="0" cy="0" fx="0" fy="0" gradientUnits="objectBoundingBox" id="paint4_radial_31_1636" node-id="43" r="1" rev="5" spreadMethod="pad"><stop offset="0.402076" stop-color="#392108"></stop><stop offset="1" stop-color="#c87928" stop-opacity="0"></stop></radialGradient><radialGradient cx="0" cy="0" fx="0" fy="0" gradientUnits="objectBoundingBox" id="paint8_radial_31_1636" node-id="55" r="1" rev="4" spreadMethod="pad"><stop offset="0.541667" stop-color="#493032"></stop><stop offset="0.806723" stop-color="#5e445a"></stop><stop offset="0.955326" stop-color="#4a2c42"></stop></radialGradient><radialGradient cx="0" cy="0" fx="0" fy="0" gradientUnits="objectBoundingBox" id="paint9_radial_31_1636" node-id="59" r="1" rev="3" spreadMethod="pad"><stop offset="0" stop-color="#c2b4b5"></stop><stop offset="0.887405" stop-color="#462b45"></stop><stop offset="1" stop-color="#4a2c42"></stop></radialGradient><radialGradient cx="0" cy="0" fx="0" fy="0" gradientUnits="objectBoundingBox" id="paint10_radial_31_1636" node-id="63" r="1" rev="2" spreadMethod="pad"><stop offset="0" stop-color="#f70a8d"></stop><stop offset="1" stop-color="#89029c"></stop></radialGradient><radialGradient cx="0" cy="0" fx="0" fy="0" gradientUnits="objectBoundingBox" id="paint11_radial_31_1636" node-id="66" r="1" rev="1" spreadMethod="pad"><stop offset="0" stop-color="#5c98ff"></stop><stop offset="0.805982" stop-color="#3d5bf1"></stop><stop offset="0.962238" stop-color="#6065ca"></stop></radialGradient><filter filterUnits="objectBoundingBox" height="6.25012" id="filter0_f_31_1636" node-id="20" width="7.25012" x="4.625" y="4.37488"><feFlood color-interpolation-filters="sRGB" flood-color="#000000" flood-opacity="0" result="BackgroundImageFix"></feFlood><feBlend color-interpolation-filters="sRGB" in="SourceGraphic" in2="BackgroundImageFix" mode="normal" result="shape"></feBlend><feGaussianBlur color-interpolation-filters="sRGB" in="shape" result="effect1_foregroundBlur_31_1636" stdDeviation="0.5 0.5"></feGaussianBlur></filter><filter filterUnits="objectBoundingBox" height="6.25012" id="filter1_f_31_1636" node-id="24" width="7.25012" x="19.3749" y="4.12488"><feFlood color-interpolation-filters="sRGB" flood-color="#000000" flood-opacity="0" result="BackgroundImageFix"></feFlood><feBlend color-interpolation-filters="sRGB" in="SourceGraphic" in2="BackgroundImageFix" mode="normal" result="shape"></feBlend><feGaussianBlur color-interpolation-filters="sRGB" in="shape" result="effect1_foregroundBlur_31_1636" stdDeviation="0.5 0.5"></feGaussianBlur></filter></defs><path d="M 16.00 30.00 C 25.33 30.00 30.00 23.73 30.00 16.00 C 30.00 8.27 25.33 2.00 16.00 2.00 C 6.66 2.00 2.00 8.27 2.00 16.00 C 2.00 23.73 6.66 30.00 16.00 30.00 Z" fill="url(#paint0_radial_31_1636)" fill-rule="nonzero" node-id="174" stroke="none" target-height="27.9978" target-width="27.9978" target-x="2" target-y="2"></path><path d="M 16.00 30.00 C 25.33 30.00 30.00 23.73 30.00 16.00 C 30.00 8.27 25.33 2.00 16.00 2.00 C 6.66 2.00 2.00 8.27 2.00 16.00 C 2.00 23.73 6.66 30.00 16.00 30.00 Z" fill="url(#paint1_radial_31_1636)" fill-rule="nonzero" node-id="176" stroke="none" target-height="27.9978" target-width="27.9978" target-x="2" target-y="2"></path><path d="M 16.00 30.00 C 25.33 30.00 30.00 23.73 30.00 16.00 C 30.00 8.27 25.33 2.00 16.00 2.00 C 6.66 2.00 2.00 8.27 2.00 16.00 C 2.00 23.73 6.66 30.00 16.00 30.00 Z" fill="url(#paint2_radial_31_1636)" fill-opacity="0.6" fill-rule="nonzero" node-id="178" stroke="none" target-height="27.9978" target-width="27.9978" target-x="2" target-y="2"></path><path d="M 6.93 11.45 C 5.20 12.24 4.00 13.98 4.00 16.00 C 4.00 18.76 6.24 21.00 9.00 21.00 C 11.76 21.00 14.00 18.76 14.00 16.00 C 14.00 14.15 13.00 12.54 11.51 11.67 C 10.94 11.87 10.27 12.00 9.50 12.00 C 8.46 12.00 7.61 11.76 6.93 11.45 Z" fill="url(#paint3_radial_31_1636)" fill-rule="evenodd" node-id="180" stroke="none" target-height="9.551402" target-width="10" target-x="4" target-y="11.448499"></path><path d="M 24.00 16.50 C 24.00 18.99 21.99 21.00 19.50 21.00 C 17.01 21.00 15.00 18.99 15.00 16.50 C 15.00 14.01 17.01 12.00 19.50 12.00 C 21.99 12.00 24.00 14.01 24.00 16.50 Z" fill="url(#paint4_radial_31_1636)" fill-rule="nonzero" node-id="182" stroke="none" target-height="9" target-width="9" target-x="15" target-y="12"></path><path d="M 13.11 10.83 C 12.37 11.38 11.17 12.00 9.50 12.00 C 8.56 12.00 7.76 11.80 7.12 11.53 C 6.42 12.32 6.00 13.36 6.00 14.50 C 6.00 16.99 8.01 19.00 10.50 19.00 C 12.99 19.00 15.00 16.99 15.00 14.50 C 15.00 12.99 14.25 11.65 13.11 10.83 Z M 24.88 11.53 C 24.24 11.80 23.44 12.00 22.50 12.00 C 20.83 12.00 19.63 11.38 18.89 10.83 C 17.75 11.65 17.00 12.99 17.00 14.50 C 17.00 16.99 19.01 19.00 21.50 19.00 C 23.99 19.00 26.00 16.99 26.00 14.50 C 26.00 13.36 25.58 12.32 24.88 11.53 Z" fill="#ffffff" fill-rule="evenodd" node-id="184" stroke="none" target-height="8.1656" target-width="20" target-x="6" target-y="10.8344"></path><path d="M 12.00 17.00 C 13.10 17.00 14.00 16.10 14.00 15.00 C 14.00 13.90 13.10 13.00 12.00 13.00 C 10.90 13.00 10.00 13.90 10.00 15.00 C 10.00 16.10 10.90 17.00 12.00 17.00 Z" fill="url(#paint5_linear_31_1636)" fill-rule="nonzero" node-id="186" stroke="none" target-height="4" target-width="4" target-x="10" target-y="13"></path><path d="M 20.00 17.00 C 21.10 17.00 22.00 16.10 22.00 15.00 C 22.00 13.90 21.10 13.00 20.00 13.00 C 18.90 13.00 18.00 13.90 18.00 15.00 C 18.00 16.10 18.90 17.00 20.00 17.00 Z" fill="url(#paint6_linear_31_1636)" fill-rule="nonzero" node-id="188" stroke="none" target-height="4" target-width="4" target-x="18" target-y="13"></path><g node-id="210"><path d="M 10.25 6.00 C 10.25 6.00 9.75 9.00 6.25 9.00" fill="none" filter="url(#filter0_f_31_1636)" group-id="1" node-id="192" stroke="#4475bf" stroke-linecap="round" stroke-width="1.25" target-height="3" target-width="4" target-x="6.25" target-y="6"></path></g><g node-id="211"><path d="M 21.00 5.75 C 21.00 5.75 21.50 8.75 25.00 8.75" fill="none" filter="url(#filter1_f_31_1636)" group-id="2" node-id="197" stroke="#166cde" stroke-linecap="round" stroke-width="1.25" target-height="3" target-width="4" target-x="21" target-y="5.75"></path></g><path d="M 10.50 5.50 C 10.50 5.50 10.00 8.50 6.50 8.50" fill="none" node-id="200" stroke="url(#paint7_linear_31_1636)" stroke-linecap="round" stroke-width="1.25" target-height="3" target-width="4" target-x="6.5" target-y="5.5"></path><path d="M 10.50 5.50 C 10.50 5.50 10.00 8.50 6.50 8.50" fill="none" node-id="202" stroke="url(#paint8_radial_31_1636)" stroke-linecap="round" stroke-width="1.25" target-height="3" target-width="4" target-x="6.5" target-y="5.5"></path><path d="M 21.50 5.50 C 21.50 5.50 22.00 8.50 25.50 8.50" fill="none" node-id="204" stroke="url(#paint9_radial_31_1636)" stroke-linecap="round" stroke-width="1.25" target-height="3" target-width="4" target-x="21.500002" target-y="5.5"></path><path d="M 20.90 25.01 C 21.01 25.55 20.55 26.00 20.00 26.00 C 16.93 26.00 14.72 26.00 12.00 26.00 C 11.45 26.00 10.99 25.55 11.10 25.01 C 11.56 22.72 13.58 21.00 16.00 21.00 C 18.42 21.00 20.44 22.72 20.90 25.01 Z" fill="url(#paint10_radial_31_1636)" fill-rule="nonzero" node-id="206" stroke="none" target-height="5" target-width="10.020801" target-x="10.9896" target-y="21"></path><path d="M 3.50 16.00 L 3.50 16.00 C 4.88 16.00 6.00 17.12 6.00 18.50 L 6.00 22.50 C 6.00 23.88 4.88 25.00 3.50 25.00 L 3.50 25.00 C 2.12 25.00 1.00 23.88 1.00 22.50 L 1.00 18.50 C 1.00 17.12 2.12 16.00 3.50 16.00 Z" fill="url(#paint11_radial_31_1636)" fill-rule="nonzero" node-id="208" stroke="none" target-height="9" target-width="5" target-x="1" target-y="16"></path></svg>